# xmcd
#
# Track frame offsets:
#	183
#	23233
#	42658
#	73008
#	89508
#	107245
#	129458
#	148833
#	160433
#	177733
#	190720
#	202420
#	225708
#	240833
#	253433
#	262183
#
# Disc length: 3644 seconds
#
# Revision: 5
# Processed by: cddbd v1.5.2PL0 Copyright (c) Steve Scherf et al.
# Submitted via: audiograbber 1.83.01
#
DISCID=000e3a10
DTITLE=Muddy Waters - The Very Best Of Muddy Waters
DYEAR=1993
DGENRE=Blues
TTITLE0=Long Distance Call
TTITLE1=Where's My Woman?
TTITLE2=Honky Tonk
TTITLE3=Off The Wall
TTITLE4=Blow Wind Blow
TTITLE5=Howlin' Wolf
TTITLE6=Can't Get No Grindin'
TTITLE7=Trouble No More
TTITLE8=Garbage Man
TTITLE9=I'm Your Hoochie Coochie Man
TTITLE10=Baby, Please Don't Go
TTITLE11=Manish Boy
TTITLE12=Everything Gonna Be Alright
TTITLE13=Go My Mojo Working
TTITLE14=Got My Mojo Working (Reprise)
TTITLE15=I Can't Call Her Sugar
EXTD=
EXTT0=
EXTT1=
EXTT2=
EXTT3=
EXTT4=
EXTT5=
EXTT6=
EXTT7=
EXTT8=
EXTT9=
EXTT10=
EXTT11=
EXTT12=
EXTT13=
EXTT14=
EXTT15=
PLAYORDER=
